<svg xmlns="http://www.w3.org/2000/svg" xmlns:xlink="http://www.w3.org/1999/xlink" version="1.1" width="1000" height="1000" viewBox="0 0 1000 1000" xml:space="preserve">
<desc>Created with Fabric.js 3.5.0</desc>
<defs>
</defs>
<rect x="0" y="0" width="100%" height="100%" fill="rgba(255,250,199,0)"/>
<g transform="matrix(37.8788 0 0 37.8788 500.0001 500.0001)" id="285008">
<g style="" vector-effect="non-scaling-stroke">
		<g transform="matrix(1 0 0 1 0.0105 0)">
<path style="stroke: none; stroke-width: 1; stroke-dasharray: none; stroke-linecap: butt; stroke-dashoffset: 0; stroke-linejoin: miter; stroke-miterlimit: 4; is-custom-font: none; font-file-url: none; fill: rgb(255,255,255); fill-rule: nonzero; opacity: 1;" transform=" translate(-12.0105, -12)" d="M 21.981 15.677 V 2.02 H 2.021 v 19.96 h 19.96 v -6.264 l 0.019 -0.024 z m -0.981 -0.08 c -0.171 0.03 -0.36 0.045 -0.45 0.059 a 2.283 2.283 0 0 1 -0.366 0.04 c -0.295 0 -0.69 -0.347 -0.952 -0.577 a 1.218 1.218 0 0 1 -0.197 -0.36 c -0.135 -0.313 -0.361 -0.839 -0.962 -0.839 a 1.464 1.464 0 0 0 -0.981 0.383 a 0.578 0.578 0 0 1 -0.41 0.185 a 0.711 0.711 0 0 1 -0.22 -0.08 a 1.405 1.405 0 0 0 -0.61 -0.165 a 0.987 0.987 0 0 0 -1.079 0.869 v 0.695 c 0 0.09 -0.046 0.15 -0.216 0.32 a 1.345 1.345 0 0 0 -0.485 0.975 a 1.06 1.06 0 0 0 0.33 0.675 c 0.033 0.038 0.079 0.093 0.101 0.097 a 1.71 1.71 0 0 1 -0.41 0.147 c -0.41 0.113 -1.096 0.302 -1.096 1.054 a 1.122 1.122 0 0 0 0.294 0.675 l 0.08 0.107 c -0.044 0.114 -0.128 0.303 -0.217 0.505 c -0.096 0.221 -0.194 0.45 -0.27 0.638 h -2.477 v -0.024 a 2.118 2.118 0 0 1 0.17 -0.755 l 0.048 -0.14 a 2.708 2.708 0 0 0 0.173 -0.922 c 0 -0.805 -0.81 -0.994 -1.294 -1.107 l -0.429 -0.1 c -0.16 -0.319 -0.081 -0.448 0.33 -0.859 a 1.78 1.78 0 0 0 0.68 -1.25 a 1.107 1.107 0 0 0 -0.88 -1.172 a 1.502 1.502 0 0 0 -0.79 0.127 a 0.878 0.878 0 0 1 -0.36 0.084 a 0.258 0.258 0 0 1 -0.144 -0.036 a 0.9 0.9 0 0 1 0.158 -0.44 a 1.755 1.755 0 0 0 0.27 -0.88 a 2.126 2.126 0 0 0 -0.086 -0.563 a 1.236 1.236 0 0 1 -0.056 -0.329 a 0.4 0.4 0 0 1 0.356 -0.428 c 0.145 0 0.228 0.109 0.452 0.509 a 1.33 1.33 0 0 0 1.26 0.666 c 0.956 0 1.567 -1.076 1.567 -1.816 c 0 -0.105 0.074 -0.215 0.144 -0.215 c 0.078 0 0.146 0.045 0.292 0.156 a 1.356 1.356 0 0 0 0.85 0.342 a 1.408 1.408 0 0 0 1.234 -0.921 a 1.372 1.372 0 0 1 0.446 -0.56 a 2.01 2.01 0 0 0 0.748 -2.418 c 0.046 -0.075 0.15 -0.184 0.141 -0.2 a 1.091 1.091 0 0 0 0.943 -0.297 a 1.224 1.224 0 0 0 0.156 -1.09 a 0.946 0.946 0 0 1 -0.027 -0.264 a 0.925 0.925 0 0 1 0.26 -0.278 a 1.34 1.34 0 0 0 0.59 -1.029 a 1.374 1.374 0 0 0 -0.22 -0.706 a 0.54 0.54 0 0 1 -0.103 -0.255 c 0 -0.051 0.101 -0.373 0.921 -0.818 L 18.231 3 H 21 z M 3 3 h 13.709 a 1.277 1.277 0 0 0 -0.347 0.83 a 1.375 1.375 0 0 0 0.221 0.71 a 0.538 0.538 0 0 1 0.102 0.251 c 0 0.085 -0.064 0.153 -0.266 0.326 a 1.578 1.578 0 0 0 -0.536 0.687 a 1.085 1.085 0 0 0 -0.054 0.343 a 2.152 2.152 0 0 0 0.05 0.388 c 0.018 0.098 0.054 0.28 0.09 0.28 a 0.496 0.496 0 0 1 -0.218 0.011 a 1.15 1.15 0 0 0 -0.84 0.438 a 0.972 0.972 0 0 0 -0.27 0.868 c 0.151 0.742 0.151 1.188 -0.282 1.421 a 2.138 2.138 0 0 0 -0.812 0.92 c -0.214 0.38 -0.283 0.451 -0.429 0.451 c -0.079 0 -0.146 -0.045 -0.293 -0.156 a 1.35 1.35 0 0 0 -0.849 -0.342 a 1.106 1.106 0 0 0 -1.068 1.139 c 0 0.298 -0.278 0.892 -0.644 0.892 c -0.346 0 -0.414 -0.124 -0.465 -0.216 a 1.45 1.45 0 0 0 -1.246 -0.96 a 1.32 1.32 0 0 0 -1.28 1.353 a 2.126 2.126 0 0 0 0.086 0.563 a 1.234 1.234 0 0 1 0.056 0.328 a 0.9 0.9 0 0 1 -0.158 0.44 a 1.754 1.754 0 0 0 -0.27 0.881 a 1.02 1.02 0 0 0 1.068 0.96 a 1.788 1.788 0 0 0 0.695 -0.146 a 0.808 0.808 0 0 1 0.323 -0.084 h 0.007 a 0.496 0.496 0 0 1 0.08 0.267 c 0 0.176 -0.154 0.343 -0.407 0.596 a 1.52 1.52 0 0 0 -0.505 1.928 a 1.413 1.413 0 0 0 1.045 0.585 c 0.184 0.042 0.525 0.121 0.58 0.207 a 1.807 1.807 0 0 1 -0.121 0.621 l -0.046 0.13 a 2.985 2.985 0 0 0 -0.223 1.066 V 21 H 3 z m 10.885 18 l 0.117 -0.268 c 0.274 -0.63 0.31 -0.716 0.31 -0.89 a 1.084 1.084 0 0 0 -0.288 -0.655 c -0.038 -0.05 -0.087 -0.13 -0.108 -0.117 a 1.41 1.41 0 0 1 0.422 -0.158 c 0.384 -0.106 1.098 -0.302 1.098 -1.057 a 1.068 1.068 0 0 0 -0.332 -0.68 c -0.044 -0.05 -0.107 -0.121 -0.108 -0.073 c 0 -0.092 0.046 -0.152 0.217 -0.323 a 1.34 1.34 0 0 0 0.484 -0.972 v -0.609 a 0.46 0.46 0 0 1 0.377 0.049 a 1.384 1.384 0 0 0 0.608 0.165 a 1.467 1.467 0 0 0 0.982 -0.382 a 0.71 0.71 0 0 1 0.369 -0.202 a 1.303 1.303 0 0 1 0.153 0.296 a 1.816 1.816 0 0 0 0.437 0.689 a 2.562 2.562 0 0 0 1.561 0.808 a 3.36 3.36 0 0 0 0.51 -0.052 a 2.764 2.764 0 0 1 0.306 -0.034 V 21 z M 10.5 5.5 a 1 1 0 1 1 1 1 a 1 1 0 0 1 -1 -1 z m -4 4 a 1 1 0 1 1 1 -1 a 1 1 0 0 1 -1 1 z m 12 9 a 1 1 0 1 1 -1 -1 a 1 1 0 0 1 1 1 z" stroke-linecap="round"/>
</g>
		<g transform="matrix(1 0 0 1 0 0)">
<path style="stroke: none; stroke-width: 1; stroke-dasharray: none; stroke-linecap: butt; stroke-dashoffset: 0; stroke-linejoin: miter; stroke-miterlimit: 4; is-custom-font: none; font-file-url: none; fill: none; fill-rule: nonzero; opacity: 1;" transform=" translate(-12, -12)" d="M 0 0 h 24 v 24 H 0 z" stroke-linecap="round"/>
</g>
</g>
</g>
</svg>