<?xml version="1.0" encoding="utf-8"?>
<svg viewBox="0 0 24 24" xmlns="http://www.w3.org/2000/svg">
  <path d="M 6 3.728 L 3.728 3.728 L 3.728 6 L 6 6 L 6 3.728 Z M 3.954 5.773 L 3.954 4.637 L 5.091 4.637 L 5.091 5.091 L 4.637 5.091 L 4.637 5.318 L 5.091 5.318 L 5.091 5.773 L 3.954 5.773 Z M 5.773 5.773 L 5.318 5.773 L 5.318 4.637 L 5.773 4.637 L 5.773 5.773 Z M 5.773 4.409 L 3.954 4.409 L 3.954 3.954 L 5.773 3.954 L 5.773 4.409 Z M 3.273 1 L 1 1 L 1 3.273 L 3.273 3.273 L 3.273 1 Z M 3.154 2.611 L 3.133 2.608 C 3.102 2.607 3.074 2.599 3.046 2.596 L 3.046 3.046 L 2.127 3.046 C 2.131 3.061 2.137 3.075 2.139 3.091 L 1.904 3.091 C 1.899 3.074 1.891 3.062 1.884 3.046 L 1.228 3.046 L 1.228 2.424 C 1.219 2.421 1.211 2.418 1.203 2.413 L 1.182 2.406 L 1.143 2.149 L 1.228 2.181 L 1.228 1.228 L 1.693 1.228 C 1.686 1.196 1.678 1.163 1.673 1.132 L 1.668 1.108 L 1.893 1.073 L 1.898 1.097 C 1.898 1.106 1.907 1.153 1.926 1.228 L 3.046 1.228 L 3.046 2.367 C 3.08 2.373 3.113 2.379 3.15 2.383 L 3.173 2.383 L 3.154 2.611 Z M 3.15 2.383 L 3.173 2.383 L 3.154 2.611 L 3.133 2.608 C 3.102 2.607 3.074 2.599 3.046 2.596 C 2.082 2.468 1.769 1.53 1.693 1.228 C 1.686 1.196 1.678 1.163 1.673 1.132 L 1.668 1.108 L 1.893 1.073 L 1.898 1.097 C 1.898 1.106 1.907 1.153 1.926 1.228 C 2.004 1.529 2.273 2.248 3.046 2.367 C 3.08 2.373 3.113 2.379 3.15 2.383 Z M 2.127 3.046 C 2.131 3.061 2.137 3.075 2.139 3.091 L 1.904 3.091 C 1.899 3.074 1.891 3.062 1.884 3.046 C 1.748 2.766 1.514 2.544 1.228 2.424 C 1.219 2.421 1.211 2.418 1.203 2.413 L 1.182 2.406 L 1.143 2.149 L 1.283 2.202 C 1.314 2.213 1.963 2.467 2.127 3.046 Z M 6 2.818 L 6 1 L 3.728 1 L 3.728 3.273 L 6 3.273 L 6 2.818 Z M 5.773 1.228 L 5.773 2.591 L 4.863 2.591 L 4.863 2.363 L 5.318 2.363 L 5.318 1.909 L 5.546 1.909 L 5.546 1.228 L 5.773 1.228 Z M 5.091 1.909 L 5.091 2.137 L 3.954 2.137 L 3.954 1.682 L 4.637 1.682 L 4.637 1.909 L 5.091 1.909 Z M 5.318 1.228 L 5.318 1.682 L 4.863 1.682 L 4.863 1.228 L 5.318 1.228 Z M 3.954 1.228 L 4.637 1.228 L 4.637 1.454 L 3.954 1.454 L 3.954 1.228 Z M 3.954 3.046 L 3.954 2.363 L 4.637 2.363 L 4.637 2.818 L 5.773 2.818 L 5.773 3.046 L 3.954 3.046 Z M 1 6 L 3.273 6 L 3.273 3.728 L 1 3.728 L 1 6 Z M 1.228 5.773 L 1.228 5.406 C 1.331 5.393 1.432 5.364 1.526 5.318 C 1.604 5.228 1.653 5.116 1.663 4.998 C 1.691 4.719 1.743 4.634 2.038 4.637 C 2.206 4.63 2.363 4.718 2.447 4.864 C 2.676 5.064 2.798 5.156 2.968 5.103 C 2.993 5.095 3.019 5.089 3.046 5.084 L 3.046 5.773 L 1.228 5.773 Z M 3.046 3.954 L 3.046 4.849 C 2.997 4.859 2.948 4.873 2.898 4.886 C 2.784 4.923 2.724 4.829 2.552 4.661 C 2.431 4.504 2.243 4.414 2.046 4.418 C 1.835 4.392 1.627 4.483 1.503 4.657 C 1.433 4.759 1.505 4.939 1.389 5.119 C 1.342 5.151 1.284 5.166 1.228 5.163 L 1.228 3.954 L 3.046 3.954 Z" style="fill: rgb(255, 255, 255);"/>
  <path fill="none" d="M0 0h24v24H0z"/>
</svg>