<?xml version="1.0" encoding="utf-8"?>
<svg viewBox="0 0 6 6" xmlns="http://www.w3.org/2000/svg" xmlns:bx="https://boxy-svg.com">
  <path d="M 5 3.182 L 3.182 3.182 L 3.182 5 L 5 5 L 5 3.182 Z M 3.363 4.818 L 3.363 3.91 L 4.273 3.91 L 4.273 4.273 L 3.91 4.273 L 3.91 4.454 L 4.273 4.454 L 4.273 4.818 L 3.363 4.818 Z M 4.818 4.818 L 4.454 4.818 L 4.454 3.91 L 4.818 3.91 L 4.818 4.818 Z M 4.818 3.727 L 3.363 3.727 L 3.363 3.363 L 4.818 3.363 L 4.818 3.727 Z M 2.818 1 L 1 1 L 1 2.818 L 2.818 2.818 L 2.818 1 Z M 2.723 2.289 L 2.706 2.286 C 2.682 2.286 2.659 2.279 2.637 2.277 L 2.637 2.637 L 1.902 2.637 C 1.905 2.649 1.91 2.66 1.911 2.673 L 1.723 2.673 C 1.719 2.659 1.713 2.65 1.707 2.637 L 1.182 2.637 L 1.182 2.139 C 1.175 2.137 1.169 2.134 1.162 2.13 L 1.146 2.125 L 1.114 1.919 L 1.182 1.945 L 1.182 1.182 L 1.554 1.182 C 1.549 1.157 1.542 1.13 1.538 1.106 L 1.534 1.086 L 1.714 1.058 L 1.718 1.078 C 1.718 1.085 1.726 1.122 1.741 1.182 L 2.637 1.182 L 2.637 2.094 C 2.664 2.098 2.69 2.103 2.72 2.106 L 2.738 2.106 L 2.723 2.289 Z M 2.72 2.106 L 2.738 2.106 L 2.723 2.289 L 2.706 2.286 C 2.682 2.286 2.659 2.279 2.637 2.277 C 1.866 2.174 1.615 1.424 1.554 1.182 C 1.549 1.157 1.542 1.13 1.538 1.106 L 1.534 1.086 L 1.714 1.058 L 1.718 1.078 C 1.718 1.085 1.726 1.122 1.741 1.182 C 1.803 1.423 2.018 1.998 2.637 2.094 C 2.664 2.098 2.69 2.103 2.72 2.106 Z M 1.902 2.637 C 1.905 2.649 1.91 2.66 1.911 2.673 L 1.723 2.673 C 1.719 2.659 1.713 2.65 1.707 2.637 C 1.598 2.413 1.411 2.235 1.182 2.139 C 1.175 2.137 1.169 2.134 1.162 2.13 L 1.146 2.125 L 1.114 1.919 L 1.226 1.962 C 1.251 1.97 1.77 2.174 1.902 2.637 Z M 5 2.454 L 5 1 L 3.182 1 L 3.182 2.818 L 5 2.818 L 5 2.454 Z M 4.818 1.182 L 4.818 2.273 L 4.09 2.273 L 4.09 2.09 L 4.454 2.09 L 4.454 1.727 L 4.637 1.727 L 4.637 1.182 L 4.818 1.182 Z M 4.273 1.727 L 4.273 1.91 L 3.363 1.91 L 3.363 1.546 L 3.91 1.546 L 3.91 1.727 L 4.273 1.727 Z M 4.454 1.182 L 4.454 1.546 L 4.09 1.546 L 4.09 1.182 L 4.454 1.182 Z M 3.363 1.182 L 3.91 1.182 L 3.91 1.363 L 3.363 1.363 L 3.363 1.182 Z M 3.363 2.637 L 3.363 2.09 L 3.91 2.09 L 3.91 2.454 L 4.818 2.454 L 4.818 2.637 L 3.363 2.637 Z M 1 5 L 2.818 5 L 2.818 3.182 L 1 3.182 L 1 5 Z M 1.182 4.818 L 1.182 4.525 C 1.265 4.514 1.346 4.491 1.421 4.454 C 1.483 4.382 1.522 4.293 1.53 4.198 C 1.553 3.975 1.594 3.907 1.83 3.91 C 1.965 3.904 2.09 3.974 2.158 4.091 C 2.341 4.251 2.438 4.325 2.574 4.282 C 2.594 4.276 2.615 4.271 2.637 4.267 L 2.637 4.818 L 1.182 4.818 Z M 2.637 3.363 L 2.637 4.079 C 2.598 4.087 2.558 4.098 2.518 4.109 C 2.427 4.138 2.379 4.063 2.242 3.929 C 2.145 3.803 1.994 3.731 1.837 3.734 C 1.668 3.714 1.502 3.786 1.402 3.926 C 1.346 4.007 1.404 4.151 1.311 4.295 C 1.274 4.321 1.227 4.333 1.182 4.33 L 1.182 3.363 L 2.637 3.363 Z" style="fill: rgb(255, 255, 255);" bx:origin="-0.002 0"/>
  <path fill="none" d="M0 0h24v24H0z"/>
</svg>